<?xml version="1.0" encoding="UTF-8" standalone="no"?><svg xmlns="http://www.w3.org/2000/svg" width="79" height="62" viewBox="0 0 79 62" fill="none"><mask id="mask0_55_482" style="mask-type:luminance" maskUnits="userSpaceOnUse" x="0" y="46" width="6" height="7"><path d="M1.93435 51.5532V46.7079C2.01214 46.7016 2.1446 46.6995 2.317 46.6995C2.65325 46.6901 2.98496 46.7788 3.27155 46.955C3.5552 47.1501 3.77121 47.4286 3.88969 47.7518C4.04867 48.1868 4.12325 48.6482 4.1094 49.1111C4.11814 49.5369 4.06575 49.9617 3.95381 50.3726C3.87541 50.659 3.73145 50.9231 3.53331 51.1442C3.41778 51.2662 3.27816 51.3629 3.12332 51.4281C2.86992 51.5267 2.59932 51.5735 2.32752 51.5658C2.19668 51.569 2.06576 51.5648 1.9354 51.5532M0.138794 46.1918V46.4767C0.228151 46.4976 0.314387 46.5301 0.395302 46.5734C0.454006 46.6054 0.501925 46.654 0.533016 46.7132C0.566727 46.7833 0.58603 46.8594 0.589784 46.9371C0.596091 47.0286 0.600297 47.1474 0.600297 47.2777V50.9897C0.600297 51.1274 0.600297 51.242 0.587682 51.3324C0.582043 51.4101 0.562082 51.486 0.52881 51.5563C0.498182 51.6153 0.450088 51.6634 0.391096 51.6941C0.310581 51.7339 0.225987 51.7649 0.138794 51.7866V52.0704H2.09414C2.47894 52.0761 2.86358 52.0504 3.24421 51.9937C3.57147 51.94 3.88782 51.8335 4.18089 51.6783C4.44424 51.5379 4.67776 51.3476 4.86841 51.118C5.08642 50.849 5.24673 50.538 5.33938 50.2044C5.44949 49.8121 5.5026 49.406 5.49707 48.9986C5.50088 48.6631 5.4631 48.3283 5.38458 48.002C5.31805 47.7254 5.20232 47.4629 5.04292 47.2273C4.88156 46.997 4.67565 46.8015 4.4374 46.6522C4.17434 46.4859 3.88446 46.3664 3.58062 46.299C3.18552 46.2169 2.7825 46.1792 2.37903 46.1865L0.138794 46.1918Z" fill="white"></path></mask><g mask="url(#mask0_55_482)"><path d="M5.4959 46.1953H0.137634V52.0739H5.4959V46.1953Z" fill="url(#paint0_linear_55_482)"></path></g><mask id="mask1_55_482" style="mask-type:luminance" maskUnits="userSpaceOnUse" x="6" y="46" width="3" height="7"><path d="M6.35272 46.1949V46.4798C6.44181 46.5006 6.52797 46.5324 6.60923 46.5744C6.66837 46.6058 6.71644 46.6547 6.74694 46.7143C6.78128 46.7842 6.80129 46.8604 6.80581 46.9382C6.81317 47.0275 6.81738 47.14 6.81738 47.2777V50.995C6.81738 51.1327 6.81212 51.2473 6.80371 51.3377C6.79887 51.4153 6.77925 51.4913 6.74589 51.5616C6.71526 51.6206 6.66717 51.6687 6.60818 51.6993C6.52766 51.7392 6.44307 51.7702 6.35588 51.7918V52.0757H8.61398V51.7918C8.54166 51.7752 8.47122 51.7512 8.40373 51.7204C8.35241 51.6977 8.30627 51.6648 8.26812 51.6236C8.23371 51.5834 8.20794 51.5365 8.19243 51.4859C8.17316 51.4174 8.16187 51.3468 8.15879 51.2757C8.15248 51.1895 8.14932 51.097 8.14932 50.996V47.2809C8.14746 47.1583 8.15342 47.0358 8.1672 46.914C8.17488 46.8437 8.19518 46.7753 8.22712 46.7122C8.25814 46.6586 8.30181 46.6135 8.35432 46.5807C8.43567 46.5333 8.5235 46.4979 8.61503 46.4756V46.1907L6.35272 46.1949Z" fill="white"></path></mask><g mask="url(#mask1_55_482)"><path d="M8.61392 46.1949H6.35266V52.0736H8.61392V46.1949Z" fill="url(#paint1_linear_55_482)"></path></g><mask id="mask2_55_482" style="mask-type:luminance" maskUnits="userSpaceOnUse" x="8" y="46" width="7" height="7"><path d="M11.6847 47.324L12.3775 49.7482H10.8238L11.6847 47.324ZM11.4955 46.1676L9.69892 50.9529C9.64342 51.1157 9.57304 51.273 9.48867 51.4228C9.43182 51.5211 9.35776 51.6084 9.27001 51.6804C9.1892 51.7441 9.09175 51.7832 8.98932 51.7929V52.0767H10.829V51.7929C10.5305 51.7733 10.3812 51.6226 10.3812 51.3408C10.3804 51.2255 10.3934 51.1104 10.4201 50.9981C10.4467 50.8853 10.4797 50.774 10.5189 50.6649L10.6608 50.2549H12.4995L12.6162 50.6754C12.6624 50.8415 12.695 50.9792 12.715 51.0885C12.734 51.1866 12.7442 51.2862 12.7455 51.3861C12.7491 51.4375 12.7416 51.4891 12.7234 51.5373C12.7053 51.5856 12.6769 51.6294 12.6403 51.6657C12.5459 51.7413 12.43 51.7851 12.3092 51.7908V52.0746H14.6861V51.7908C14.5816 51.7733 14.4829 51.7312 14.3981 51.6678C14.326 51.6083 14.2685 51.5331 14.2298 51.4481C14.1657 51.2993 14.1123 51.1461 14.0701 50.9897L12.6488 46.1655L11.4955 46.1676Z" fill="white"></path></mask><g mask="url(#mask2_55_482)"><path d="M14.6818 46.1643H8.98816V52.0734H14.6818V46.1643Z" fill="url(#paint2_linear_55_482)"></path></g><mask id="mask3_55_482" style="mask-type:luminance" maskUnits="userSpaceOnUse" x="15" y="46" width="7" height="7"><path d="M19.7984 46.1949L18.5064 49.7314L17.3185 46.1949H15.1728V46.4798C15.2901 46.5045 15.4006 46.5544 15.4966 46.6259C15.5501 46.6802 15.5866 46.7489 15.6018 46.8236C15.6257 46.9716 15.6352 47.1216 15.6301 47.2714V50.9971C15.6301 51.1348 15.6301 51.2483 15.6196 51.3377C15.6149 51.4141 15.5949 51.4888 15.5608 51.5574C15.5281 51.6156 15.4797 51.6634 15.4209 51.6951C15.341 51.7367 15.2562 51.7684 15.1686 51.7897V52.0736H16.797V51.7897C16.6826 51.7692 16.5746 51.722 16.4817 51.652C16.4207 51.5961 16.3784 51.5226 16.3608 51.4418C16.3356 51.2953 16.3254 51.1467 16.3303 50.9981V49.0207C16.3303 48.3745 16.3159 47.8139 16.2872 47.3387H16.3723C16.427 47.5342 16.4904 47.7308 16.5626 47.9284L17.7768 51.4218H18.5348L19.6912 48.3122C19.7963 48.0273 19.8699 47.8307 19.9088 47.7203C19.9477 47.6099 19.9834 47.4964 20.0139 47.3818H20.1043C20.0959 47.5142 20.0875 47.7382 20.0791 48.0535C20.0696 48.3689 20.0654 48.6433 20.0654 48.8756V50.9866C20.0683 51.127 20.062 51.2675 20.0465 51.4071C20.0396 51.474 20.0188 51.5388 19.9855 51.5973C19.957 51.6413 19.918 51.6774 19.872 51.7025C19.7875 51.7409 19.6995 51.7712 19.6092 51.7929V52.0767H21.8168V51.7929C21.6984 51.7709 21.5868 51.7216 21.4909 51.6489C21.4327 51.5842 21.3959 51.503 21.3858 51.4165C21.366 51.2773 21.3572 51.1367 21.3595 50.996V47.2714C21.3545 47.1207 21.3654 46.9699 21.3921 46.8215C21.4099 46.7445 21.4497 46.6743 21.5067 46.6196C21.5989 46.5514 21.7046 46.5037 21.8168 46.4798V46.1949H19.7984Z" fill="white"></path></mask><g mask="url(#mask3_55_482)"><path d="M21.8177 46.1949H15.1727V52.0736H21.8177V46.1949Z" fill="url(#paint3_linear_55_482)"></path></g><mask id="mask4_55_482" style="mask-type:luminance" maskUnits="userSpaceOnUse" x="22" y="46" width="6" height="7"><path d="M24.3745 51.0034C24.1642 50.5829 24.0591 49.9377 24.0591 49.068C24.0591 48.2375 24.1604 47.6236 24.3629 47.2262C24.5655 46.8288 24.8749 46.6301 25.2912 46.6301C25.4221 46.6262 25.5523 46.6505 25.673 46.7015C25.7936 46.7525 25.9018 46.8289 25.9903 46.9255C26.1997 47.1767 26.3409 47.4775 26.4003 47.7991C26.4992 48.2716 26.5447 48.7536 26.5359 49.2362C26.5377 49.5586 26.5166 49.8808 26.4728 50.2002C26.4388 50.4622 26.368 50.7181 26.2625 50.9603C26.1803 51.1559 26.0506 51.3278 25.8851 51.4607C25.7229 51.5821 25.5243 51.6451 25.3217 51.6394C24.8941 51.6394 24.576 51.4274 24.3671 51.0034M23.9004 46.483C23.4956 46.7268 23.1782 47.0921 22.9931 47.5269C22.7752 48.051 22.6703 48.6152 22.6851 49.1826C22.6851 50.1673 22.8971 50.9067 23.3211 51.4008C23.7451 51.8948 24.3787 52.1401 25.2218 52.1366C25.5961 52.1416 25.9685 52.0819 26.3225 51.96C26.6426 51.8458 26.9309 51.657 27.1635 51.4092C27.4136 51.1338 27.5996 50.8063 27.708 50.4504C27.8454 49.9978 27.9104 49.5262 27.9004 49.0533C27.9004 48.0833 27.6849 47.3516 27.2539 46.8583C26.8229 46.3649 26.1784 46.1196 25.3206 46.1224C24.8217 46.1086 24.3285 46.2323 23.8951 46.4798" fill="white"></path></mask><g mask="url(#mask4_55_482)"><path d="M27.9122 46.1267H22.6927V52.1431H27.9122V46.1267Z" fill="url(#paint4_linear_55_482)"></path></g><mask id="mask5_55_482" style="mask-type:luminance" maskUnits="userSpaceOnUse" x="28" y="46" width="7" height="7"><path d="M32.3746 46.1949V46.4798C32.4618 46.5022 32.5464 46.5339 32.6269 46.5744C32.6742 46.6001 32.7151 46.636 32.7467 46.6795C32.7824 46.7371 32.8053 46.8016 32.814 46.8688C32.8308 47.003 32.8378 47.1383 32.835 47.2735V48.0746C32.835 48.8882 32.8508 49.6378 32.8823 50.3232H32.814C32.6962 50.0709 32.5606 49.7976 32.4092 49.5179C32.2579 49.2383 32.1338 49.0081 32.0382 48.842L30.5138 46.1928H28.7698V46.4777C28.8844 46.5002 28.9923 46.5488 29.0852 46.6196C29.1439 46.6742 29.1846 46.7453 29.2019 46.8236C29.2246 46.971 29.2337 47.1202 29.2292 47.2693V50.995C29.2292 51.1295 29.2292 51.242 29.2166 51.3314C29.211 51.4082 29.1914 51.4834 29.1588 51.5532C29.1277 51.6124 29.0797 51.661 29.021 51.693C28.941 51.7346 28.8563 51.7663 28.7687 51.7876V52.0715H30.3971V51.7876C30.2834 51.766 30.1757 51.7197 30.0818 51.652C30.0223 51.5956 29.9819 51.5222 29.9661 51.4418C29.9389 51.2927 29.928 51.1411 29.9335 50.9897V49.6105C29.9335 48.9243 29.9192 48.2726 29.8904 47.6551H29.9335C30.0569 47.9137 30.2493 48.2697 30.5107 48.7232L32.4492 52.0736H33.5425V47.2756C33.539 47.1409 33.5478 47.0061 33.5688 46.873C33.5789 46.8031 33.6044 46.7363 33.6434 46.6774C33.6758 46.6342 33.717 46.5983 33.7643 46.5723C33.8424 46.5338 33.9236 46.5021 34.0072 46.4777V46.1928L32.3746 46.1949Z" fill="white"></path></mask><g mask="url(#mask5_55_482)"><path d="M34.0031 46.1953H28.77V52.0739H34.0031V46.1953Z" fill="url(#paint5_linear_55_482)"></path></g><mask id="mask6_55_482" style="mask-type:luminance" maskUnits="userSpaceOnUse" x="34" y="46" width="7" height="7"><path d="M36.5692 51.5532V46.7079C36.647 46.7016 36.7742 46.6995 36.9529 46.6995C37.2888 46.6901 37.6201 46.7789 37.9064 46.955C38.1906 47.1495 38.4068 47.4282 38.5245 47.7518C38.6835 48.1868 38.7581 48.6482 38.7442 49.1111C38.7535 49.5369 38.7011 49.9618 38.5886 50.3726C38.5107 50.6592 38.3666 50.9234 38.1681 51.1443C38.0532 51.2664 37.9138 51.3631 37.7592 51.4281C37.5054 51.5266 37.2345 51.5735 36.9623 51.5658C36.8315 51.569 36.7006 51.5648 36.5702 51.5532M34.7747 46.1918V46.4767C34.864 46.4976 34.9503 46.5301 35.0312 46.5734C35.0894 46.606 35.1372 46.6545 35.1689 46.7132C35.2017 46.7835 35.2207 46.8596 35.2246 46.9371C35.232 47.0286 35.2351 47.1474 35.2351 47.2777V50.9897C35.2351 51.1274 35.2351 51.242 35.2225 51.3324C35.2174 51.4101 35.1974 51.4862 35.1636 51.5563C35.1334 51.6156 35.0852 51.6638 35.0259 51.6941C34.9458 51.7341 34.8616 51.7651 34.7747 51.7866V52.0704H36.73C37.1148 52.076 37.4994 52.0504 37.8801 51.9937C38.2073 51.9397 38.5236 51.8332 38.8168 51.6783C39.0798 51.5379 39.313 51.3476 39.5032 51.118C39.7213 50.8489 39.8819 50.538 39.9752 50.2044C40.0833 49.8146 40.1357 49.4115 40.1308 49.007C40.135 48.6715 40.0975 48.3368 40.0194 48.0105C39.9525 47.7337 39.8364 47.4713 39.6767 47.2357C39.5153 47.0054 39.3094 46.8099 39.0712 46.6606C38.8082 46.4941 38.5183 46.3746 38.2144 46.3074C37.8193 46.2253 37.4163 46.1876 37.0128 46.1949L34.7747 46.1918Z" fill="white"></path></mask><g mask="url(#mask6_55_482)"><path d="M40.1307 46.1951H34.7735V52.0737H40.1307V46.1951Z" fill="url(#paint6_linear_55_482)"></path></g><mask id="mask7_55_482" style="mask-type:luminance" maskUnits="userSpaceOnUse" x="42" y="46" width="7" height="8"><path d="M44.6512 51.0034C44.4409 50.5829 44.3358 49.9378 44.3358 49.068C44.3358 48.2375 44.4371 47.6236 44.6396 47.2262C44.8422 46.8288 45.1516 46.6301 45.5679 46.6301C45.6988 46.6262 45.829 46.6506 45.9497 46.7015C46.0703 46.7525 46.1785 46.8289 46.267 46.9256C46.4499 47.1221 46.5823 47.4133 46.6769 47.7991C46.7759 48.2716 46.8214 48.7536 46.8126 49.2362C46.8157 49.5575 46.796 49.8786 46.7537 50.1971C46.7197 50.4591 46.6489 50.7149 46.5434 50.9571C46.4612 51.1527 46.3315 51.3247 46.166 51.4575C46.0034 51.5792 45.8045 51.6422 45.6015 51.6362C45.1733 51.6362 44.8555 51.4242 44.648 51.0002M44.1802 46.4798C43.776 46.724 43.459 47.0892 43.274 47.5237C43.0566 48.0494 42.9527 48.615 42.9692 49.1837C42.9692 49.8214 43.0561 50.3506 43.2299 50.7711C43.3746 51.1557 43.6308 51.4885 43.9657 51.7267C44.3181 51.9556 44.7221 52.0929 45.1411 52.1261L45.653 52.9177C45.7678 53.104 45.9127 53.2699 46.0819 53.4087C46.2199 53.5198 46.378 53.6034 46.5476 53.6547C46.7236 53.7028 46.9056 53.7258 47.088 53.723C47.2508 53.7256 47.4133 53.7055 47.5705 53.6631C47.7233 53.6143 47.8682 53.5435 48.0005 53.4528C48.1831 53.3275 48.3547 53.1868 48.5135 53.0323L48.2118 52.6581C48.1362 52.723 48.0557 52.7821 47.9711 52.8347C47.909 52.8714 47.8421 52.8994 47.7724 52.9177C47.6976 52.935 47.621 52.9431 47.5442 52.9419C47.4728 52.9432 47.4017 52.9321 47.334 52.9093C47.2629 52.885 47.1962 52.8495 47.1363 52.8042C47.0651 52.7508 47.0002 52.6894 46.9429 52.6213C46.8819 52.5508 46.8178 52.4678 46.7484 52.3732L46.4814 52.0073C47.0225 51.846 47.4797 51.4807 47.7566 50.9887C48.0404 50.4904 48.1824 49.8467 48.1824 49.0575C48.1824 48.0875 47.9672 47.3559 47.5369 46.8625C47.1066 46.3691 46.4621 46.1238 45.6036 46.1266C45.1044 46.1132 44.611 46.2368 44.1771 46.484" fill="white"></path></mask><g mask="url(#mask7_55_482)"><path d="M48.5209 46.1266H42.9734V53.7241H48.5209V46.1266Z" fill="url(#paint7_linear_55_482)"></path></g><mask id="mask8_55_482" style="mask-type:luminance" maskUnits="userSpaceOnUse" x="48" y="46" width="7" height="7"><path d="M52.4011 46.1949V46.4798C52.5154 46.5034 52.623 46.5519 52.7165 46.6217C52.7712 46.6776 52.8078 46.7487 52.8216 46.8257C52.8441 46.9745 52.8533 47.1251 52.849 47.2756V50.0236C52.8595 50.3414 52.8298 50.6593 52.7607 50.9697C52.7134 51.1618 52.6072 51.3342 52.4568 51.4628C52.3139 51.5805 52.0952 51.6394 51.803 51.6394C51.6218 51.6483 51.4412 51.6122 51.2773 51.5343C51.1446 51.4642 51.0351 51.3573 50.962 51.2262C50.8805 51.0771 50.827 50.9143 50.8043 50.7458C50.7744 50.5408 50.76 50.3338 50.7612 50.1266V47.2882C50.7593 47.1657 50.7653 47.0431 50.779 46.9213C50.7867 46.851 50.807 46.7826 50.8389 46.7195C50.8697 46.6657 50.9134 46.6206 50.9662 46.5881C51.0475 46.5406 51.1353 46.5052 51.2269 46.483V46.1981H48.9772V46.483C49.0665 46.5039 49.1528 46.5364 49.2337 46.5797C49.2919 46.6123 49.3397 46.6608 49.3714 46.7195C49.4042 46.7898 49.4232 46.8659 49.4271 46.9434C49.4345 47.0349 49.4376 47.1537 49.4376 47.284V50.0699C49.4283 50.3901 49.4712 50.7096 49.5648 51.016C49.6444 51.2516 49.7788 51.4649 49.9569 51.6383C50.152 51.8177 50.3875 51.9472 50.6434 52.0157C50.9799 52.1079 51.328 52.1508 51.6768 52.1429C51.9296 52.145 52.1819 52.1232 52.4306 52.0778C52.6419 52.0402 52.846 51.9693 53.035 51.8675C53.2117 51.7693 53.3652 51.6341 53.485 51.4712C53.614 51.2895 53.7048 51.0835 53.752 50.8657C53.8151 50.5721 53.844 50.2723 53.8382 49.9721V47.2756C53.837 47.1616 53.8416 47.0475 53.8519 46.934C53.8568 46.8561 53.8772 46.78 53.9118 46.71C53.943 46.6515 53.9909 46.6035 54.0495 46.5723C54.1276 46.5319 54.2101 46.5008 54.2955 46.4798V46.1949H52.4011Z" fill="white"></path></mask><g mask="url(#mask8_55_482)"><path d="M54.2965 46.1949H48.9772V52.1429H54.2965V46.1949Z" fill="url(#paint8_linear_55_482)"></path></g><mask id="mask9_55_482" style="mask-type:luminance" maskUnits="userSpaceOnUse" x="54" y="46" width="6" height="7"><path d="M56.8154 47.324L57.505 49.7482H55.9544L56.8154 47.324ZM56.6261 46.1676L54.8306 50.9529C54.7746 51.1155 54.7043 51.2728 54.6203 51.4228C54.5628 51.521 54.4884 51.6082 54.4006 51.6804C54.3202 51.7441 54.2231 51.7832 54.121 51.7929V52.0767H55.9596V51.7929C55.6611 51.7733 55.5118 51.6226 55.5118 51.3408C55.511 51.2255 55.524 51.1104 55.5507 50.9981C55.5773 50.8853 55.6103 50.774 55.6495 50.6649L55.7914 50.2549H57.6301L57.7468 50.6754C57.793 50.8415 57.8256 50.9792 57.8456 51.0885C57.8646 51.1866 57.8748 51.2862 57.8761 51.3861C57.8795 51.4375 57.8719 51.489 57.8537 51.5372C57.8356 51.5855 57.8074 51.6293 57.7709 51.6657C57.676 51.7411 57.5598 51.7849 57.4387 51.7908V52.0746H59.8156V51.7908C59.7113 51.7731 59.6125 51.731 59.5276 51.6678C59.456 51.6079 59.3985 51.5329 59.3594 51.4481C59.2957 51.2992 59.2427 51.1461 59.2007 50.9897L57.7794 46.1655L56.6261 46.1676Z" fill="white"></path></mask><g mask="url(#mask9_55_482)"><path d="M59.8134 46.1643H54.1198V52.0734H59.8134V46.1643Z" fill="url(#paint9_linear_55_482)"></path></g><mask id="mask10_55_482" style="mask-type:luminance" maskUnits="userSpaceOnUse" x="60" y="46" width="5" height="7"><path d="M60.315 46.1949V46.4798C60.4044 46.5007 60.4906 46.5332 60.5715 46.5765C60.6297 46.6091 60.6775 46.6576 60.7092 46.7163C60.7421 46.7867 60.761 46.8627 60.7649 46.9403C60.7723 47.0317 60.7755 47.1505 60.7755 47.2809V50.9887C60.7755 51.1264 60.7755 51.241 60.7628 51.3314C60.7575 51.4089 60.7379 51.4849 60.705 51.5553C60.6738 51.6147 60.6255 51.6634 60.5663 51.6951C60.4867 51.7369 60.4023 51.7686 60.315 51.7897V52.0736H64.4149L64.5095 50.3337H63.9198C63.8882 50.4862 63.8462 50.6491 63.7926 50.8226C63.7504 50.9712 63.6867 51.1129 63.6033 51.2431C63.538 51.3433 63.4483 51.4254 63.3426 51.4817C63.217 51.5385 63.0798 51.5651 62.9421 51.5595H62.1127V47.2714C62.1118 47.1573 62.1167 47.0433 62.1274 46.9297C62.1342 46.8522 62.1564 46.7768 62.1926 46.7079C62.2253 46.6503 62.2738 46.6033 62.3324 46.5723C62.4105 46.5321 62.4931 46.501 62.5784 46.4798V46.1949H60.315Z" fill="white"></path></mask><g mask="url(#mask10_55_482)"><path d="M64.5161 46.1949H60.3174V52.0736H64.5161V46.1949Z" fill="url(#paint10_linear_55_482)"></path></g><mask id="mask11_55_482" style="mask-type:luminance" maskUnits="userSpaceOnUse" x="65" y="46" width="3" height="7"><path d="M65.175 46.1949V46.4798C65.2641 46.5006 65.3502 46.5324 65.4315 46.5744C65.4906 46.6058 65.5387 46.6547 65.5692 46.7143C65.6022 46.7838 65.6211 46.8592 65.6249 46.9361C65.6323 47.0254 65.6354 47.1379 65.6354 47.2756V50.9929C65.6354 51.1306 65.6354 51.2452 65.6228 51.3356C65.6175 51.4132 65.5979 51.4891 65.565 51.5595C65.5341 51.6183 65.4861 51.6663 65.4273 51.6972C65.3468 51.7371 65.2622 51.7681 65.175 51.7897V52.0736H67.4362V51.7897C67.3639 51.7731 67.2935 51.7491 67.226 51.7183C67.1747 51.6956 67.1285 51.6627 67.0904 51.6215C67.056 51.5813 67.0302 51.5344 67.0147 51.4838C66.9954 51.4153 66.9841 51.3447 66.9811 51.2736C66.9747 51.1874 66.9726 51.0949 66.9726 50.9939V47.2809C66.9705 47.1584 66.9762 47.0358 66.9895 46.914C66.9971 46.8437 67.0174 46.7753 67.0494 46.7122C67.0801 46.6584 67.1239 46.6132 67.1766 46.5807C67.2579 46.5333 67.3458 46.4979 67.4373 46.4756V46.1907L65.175 46.1949Z" fill="white"></path></mask><g mask="url(#mask11_55_482)"><path d="M67.4362 46.1949H65.175V52.0736H67.4362V46.1949Z" fill="url(#paint11_linear_55_482)"></path></g><mask id="mask12_55_482" style="mask-type:luminance" maskUnits="userSpaceOnUse" x="68" y="46" width="6" height="7"><path d="M68.129 46.1949V47.7066H68.7251C68.7566 47.5773 68.7966 47.4407 68.8449 47.2956C68.8836 47.1711 68.9426 47.0539 69.0194 46.9487C69.0819 46.8662 69.1644 46.8011 69.2591 46.7594C69.3857 46.7137 69.52 46.6934 69.6544 46.6995H70.0034V50.9929C70.0034 51.133 69.9992 51.2487 69.9908 51.3398C69.9858 51.4202 69.964 51.4986 69.9267 51.57C69.8901 51.632 69.8349 51.6809 69.769 51.7098C69.6777 51.7492 69.5815 51.7761 69.4831 51.7897V52.0736H71.8599V51.7897C71.7784 51.7798 71.6983 51.7604 71.6213 51.7319C71.5711 51.7125 71.5245 51.6848 71.4836 51.6499C71.4475 51.6166 71.4189 51.5762 71.3995 51.5311C71.3732 51.4704 71.3572 51.4057 71.3522 51.3398C71.3413 51.2245 71.3367 51.1087 71.3385 50.9929V46.6995H71.6539C71.7499 46.698 71.8459 46.7043 71.9409 46.7184C72.0044 46.7285 72.0661 46.748 72.1238 46.7763C72.1746 46.8045 72.2209 46.8399 72.2615 46.8814C72.3088 46.9299 72.3501 46.9839 72.3845 47.0422C72.4275 47.1166 72.4627 47.1951 72.4897 47.2767C72.5212 47.3692 72.5643 47.5121 72.619 47.7077H73.2087V46.1949H68.129Z" fill="white"></path></mask><g mask="url(#mask12_55_482)"><path d="M73.1982 46.1949H68.129V52.0736H73.1982V46.1949Z" fill="url(#paint12_linear_55_482)"></path></g><mask id="mask13_55_482" style="mask-type:luminance" maskUnits="userSpaceOnUse" x="73" y="46" width="6" height="7"><path d="M77.1351 46.1949V46.4798C77.2268 46.4795 77.3151 46.5141 77.3821 46.5765C77.4125 46.6089 77.436 46.6472 77.4512 46.6889C77.4664 46.7306 77.4729 46.775 77.4705 46.8194C77.4707 46.9261 77.4555 47.0324 77.4253 47.1348C77.383 47.2705 77.3292 47.4024 77.2644 47.529L76.476 49.1059L75.7485 47.4859C75.6675 47.3135 75.6097 47.1705 75.574 47.0727C75.5412 46.9874 75.523 46.8971 75.5204 46.8057C75.5204 46.6165 75.6307 46.5075 75.8515 46.4788V46.1939H73.5608V46.4788C73.619 46.483 73.676 46.4976 73.729 46.5219C73.7786 46.5489 73.8231 46.5845 73.8604 46.627C73.926 46.7055 73.9831 46.7908 74.0307 46.8814C74.0886 46.9865 74.1674 47.1369 74.2673 47.3461L75.4342 49.8102V50.9897C75.4356 51.1069 75.4306 51.2242 75.4194 51.3408C75.4128 51.4212 75.3903 51.4995 75.3532 51.5711C75.3168 51.6327 75.2615 51.681 75.1955 51.7088C75.1052 51.7462 75.0105 51.7723 74.9138 51.7866V52.0704H77.2907V51.7866C77.2092 51.7767 77.1291 51.7573 77.0521 51.7288C77.0018 51.7094 76.9553 51.6817 76.9143 51.6468C76.8786 51.6132 76.85 51.5728 76.8302 51.528C76.804 51.4673 76.788 51.4026 76.7829 51.3366C76.7726 51.2213 76.768 51.1055 76.7693 50.9897V49.8134L78.0056 47.4869C78.1107 47.2767 78.2105 47.1127 78.2946 46.9834C78.3563 46.8805 78.4267 46.7831 78.5049 46.6922C78.5535 46.6379 78.609 46.5902 78.6699 46.5503C78.73 46.5169 78.7949 46.4931 78.8623 46.4798V46.1949H77.1351Z" fill="white"></path></mask><g mask="url(#mask13_55_482)"><path d="M78.8611 46.195H73.5554V52.0736H78.8611V46.195Z" fill="url(#paint13_linear_55_482)"></path></g><mask id="mask14_55_482" style="mask-type:luminance" maskUnits="userSpaceOnUse" x="11" y="55" width="6" height="7"><path d="M13.2543 56.1167C13.329 56.1167 13.4845 56.1083 13.7232 56.1083C14.0711 56.1083 14.335 56.2019 14.5116 56.3901C14.6882 56.5782 14.7776 56.861 14.7776 57.2374C14.7789 57.3963 14.763 57.5549 14.7303 57.7105C14.7013 57.8471 14.6416 57.9755 14.5558 58.0858C14.4652 58.1972 14.3471 58.2831 14.2131 58.3349C14.0377 58.4 13.8513 58.4304 13.6643 58.4243H13.2543V56.1167ZM11.5229 55.6227V55.896C11.6088 55.9167 11.6918 55.9481 11.7699 55.9895C11.8262 56.0211 11.8722 56.0682 11.9024 56.1252C11.935 56.1925 11.9533 56.2659 11.956 56.3407C11.9634 56.429 11.9665 56.5383 11.9665 56.6687V60.2429C11.9665 60.3764 11.9665 60.4858 11.955 60.573C11.9494 60.6461 11.9301 60.7174 11.8982 60.7833C11.8686 60.8402 11.8224 60.8868 11.7657 60.9168C11.6881 60.9548 11.6067 60.9848 11.5229 61.0062V61.2795H13.7022V61.0062C13.5911 60.9852 13.4862 60.9395 13.3952 60.8726C13.3379 60.8198 13.2985 60.7503 13.2827 60.674C13.2592 60.5298 13.2496 60.3837 13.2543 60.2377V58.9099H13.4951C13.6101 58.9039 13.7252 58.9211 13.8336 58.9604C13.9173 59.0036 13.9894 59.0663 14.0438 59.1433C14.1426 59.2833 14.2261 59.4334 14.293 59.5912L14.6167 60.3008C14.7669 60.6463 14.9489 60.9771 15.1602 61.2889H16.7582V61.0156C16.5999 60.987 16.4561 60.9054 16.3503 60.7843C16.2066 60.6142 16.0896 60.4231 16.0034 60.2177L15.7416 59.6584C15.6483 59.4543 15.5258 59.2648 15.3779 59.096C15.2359 58.9429 15.0628 58.8221 14.8701 58.7417V58.6997C15.1019 58.6084 15.3204 58.4865 15.5198 58.337C15.6829 58.2063 15.8147 58.0407 15.9056 57.8524C16.0064 57.6342 16.0553 57.3956 16.0486 57.1554C16.0524 56.9703 16.025 56.7858 15.9676 56.6098C15.8678 56.3069 15.6546 56.0544 15.3726 55.9054C15.1841 55.8059 14.9818 55.7351 14.7723 55.6952C14.4976 55.6458 14.2188 55.6229 13.9397 55.6269L11.5229 55.6227Z" fill="white"></path></mask><g mask="url(#mask14_55_482)"><path d="M16.7624 55.6227H11.5229V61.2889H16.7624V55.6227Z" fill="url(#paint14_linear_55_482)"></path></g><mask id="mask15_55_482" style="mask-type:luminance" maskUnits="userSpaceOnUse" x="20" y="55" width="6" height="7"><path d="M22.0207 60.2576C21.8196 59.8498 21.719 59.2278 21.719 58.3917C21.719 57.592 21.8168 57.0005 22.0123 56.6171C22.2079 56.2338 22.5061 56.0421 22.9069 56.0421C23.0332 56.0382 23.1588 56.0616 23.2753 56.1106C23.3917 56.1596 23.4963 56.233 23.5819 56.3259C23.7827 56.5682 23.9184 56.8576 23.9761 57.1669C24.0714 57.6221 24.1151 58.0865 24.1064 58.5514C24.1082 58.8622 24.0882 59.1728 24.0465 59.4808C24.0154 59.7343 23.9481 59.9821 23.8468 60.2166C23.7677 60.405 23.6431 60.5708 23.4841 60.6992C23.3274 60.8159 23.1359 60.8763 22.9406 60.8705C22.5278 60.8705 22.2212 60.6666 22.0207 60.2587M21.5697 55.9012C21.18 56.1369 20.8744 56.4892 20.6961 56.9083C20.4865 57.4129 20.3855 57.9559 20.3997 58.502C20.3997 59.4524 20.6036 60.1651 21.0115 60.6403C21.4194 61.1155 22.0305 61.3538 22.8449 61.3552C23.2057 61.3596 23.5646 61.3016 23.9056 61.1838C24.2157 61.0764 24.4955 60.8962 24.7214 60.6582C24.963 60.393 25.1426 60.0773 25.2471 59.7341C25.3791 59.2977 25.4416 58.8433 25.4321 58.3875C25.4321 57.4518 25.2246 56.7468 24.8097 56.2723C24.3948 55.7978 23.7732 55.5599 22.9448 55.5585C22.4637 55.5456 21.9882 55.6644 21.5697 55.9023" fill="white"></path></mask><g mask="url(#mask15_55_482)"><path d="M25.4312 55.5563H20.3998V61.3561H25.4312V55.5563Z" fill="url(#paint15_linear_55_482)"></path></g><mask id="mask16_55_482" style="mask-type:luminance" maskUnits="userSpaceOnUse" x="29" y="55" width="6" height="7"><path d="M31.3328 60.2576C31.1317 59.8497 31.0315 59.2277 31.0322 58.3916C31.0322 57.592 31.1296 57.0005 31.3244 56.6171C31.5192 56.2337 31.8174 56.042 32.219 56.042C32.3453 56.0381 32.4709 56.0615 32.5874 56.1104C32.7039 56.1594 32.8084 56.2329 32.8939 56.3259C33.0948 56.5681 33.2304 56.8576 33.2882 57.1669C33.3839 57.622 33.428 58.0864 33.4196 58.5514C33.4213 58.8622 33.4013 59.1727 33.3596 59.4807C33.3275 59.7341 33.2603 59.9818 33.1599 60.2166C33.0808 60.4053 32.9557 60.5711 32.7962 60.6991C32.6396 60.816 32.448 60.8764 32.2527 60.8705C31.8406 60.8705 31.534 60.6665 31.3328 60.2587M30.8797 55.9001C30.49 56.1358 30.1844 56.4881 30.0061 56.9072C29.7965 57.4121 29.6962 57.9556 29.7118 58.502C29.7118 59.4523 29.9161 60.1651 30.3247 60.6403C30.7332 61.1154 31.344 61.3537 32.157 61.3551C32.5178 61.3596 32.8767 61.3017 33.2177 61.1838C33.5279 61.0766 33.8077 60.8963 34.0335 60.6581C34.2749 60.3928 34.4545 60.0772 34.5591 59.7341C34.6912 59.2977 34.7537 58.8432 34.7442 58.3874C34.7442 57.4518 34.5364 56.7467 34.1208 56.2723C33.7052 55.7978 33.0839 55.5599 32.2569 55.5585C31.7752 55.5444 31.2989 55.6625 30.8797 55.9001Z" fill="white"></path></mask><g mask="url(#mask16_55_482)"><path d="M34.7429 55.5565H29.7116V61.3563H34.7429V55.5565Z" fill="url(#paint16_linear_55_482)"></path></g><mask id="mask17_55_482" style="mask-type:luminance" maskUnits="userSpaceOnUse" x="38" y="55" width="5" height="7"><path d="M38.9828 55.6227V55.896C39.0688 55.9165 39.1518 55.9479 39.2298 55.9895C39.2864 56.021 39.3328 56.0681 39.3633 56.1252C39.395 56.1928 39.4132 56.266 39.417 56.3407C39.4243 56.429 39.4275 56.5383 39.4275 56.6687V60.2429C39.4275 60.3754 39.4275 60.4868 39.4149 60.5751C39.4098 60.6505 39.3909 60.7243 39.3591 60.7927C39.3292 60.8503 39.2827 60.8975 39.2256 60.9284C39.1488 60.9677 39.0671 60.9971 38.9828 61.0156V61.2889H41.2167V61.0156C41.1379 61.0065 41.0605 60.9874 40.9865 60.9588C40.9378 60.9405 40.8926 60.9138 40.853 60.88C40.819 60.8477 40.7915 60.8091 40.772 60.7665C40.7472 60.7076 40.732 60.6451 40.7268 60.5814C40.717 60.4703 40.7127 60.3587 40.7142 60.2471V58.7123H41.2462C41.3476 58.7067 41.4487 58.7266 41.5405 58.7701C41.6178 58.8181 41.6787 58.8885 41.715 58.972C41.7726 59.101 41.8129 59.2371 41.8349 59.3767H42.3048V57.5612H41.8349C41.8145 57.6984 41.7763 57.8323 41.7213 57.9596C41.6851 58.0431 41.6242 58.1135 41.5468 58.1614C41.4532 58.2063 41.3498 58.2269 41.2462 58.2214H40.7142V56.1083H41.5153C41.6707 56.0964 41.8267 56.1242 41.9684 56.1893C42.0591 56.2456 42.1368 56.3204 42.1965 56.409C42.2936 56.5778 42.3716 56.7569 42.4288 56.943H42.9976V55.6227H38.9828Z" fill="white"></path></mask><g mask="url(#mask17_55_482)"><path d="M42.9976 55.6227H38.9828V61.2889H42.9976V55.6227Z" fill="url(#paint17_linear_55_482)"></path></g><mask id="mask18_55_482" style="mask-type:luminance" maskUnits="userSpaceOnUse" x="47" y="55" width="3" height="7"><path d="M47.0692 55.6226V55.896C47.1547 55.917 47.2376 55.9477 47.3162 55.9874C47.3729 56.0184 47.4191 56.0656 47.4487 56.123C47.4803 56.1889 47.4989 56.2603 47.5033 56.3333C47.5096 56.4195 47.5128 56.5288 47.5128 56.6613V60.2471C47.5128 60.3806 47.5128 60.49 47.5012 60.5772C47.4956 60.6502 47.4764 60.7216 47.4445 60.7875C47.4157 60.845 47.3693 60.8918 47.312 60.921C47.2343 60.959 47.1529 60.989 47.0692 61.0103V61.2837H49.2484V61.0103C49.1787 60.9943 49.1107 60.9714 49.0455 60.942C48.996 60.9198 48.9513 60.888 48.9141 60.8484C48.8812 60.8093 48.8565 60.7639 48.8416 60.7149C48.8226 60.6489 48.8117 60.5807 48.809 60.512C48.8027 60.429 48.8006 60.3386 48.8006 60.2419V56.6676C48.7985 56.5496 48.8041 56.4316 48.8174 56.3144C48.824 56.2464 48.8436 56.1804 48.8752 56.1199C48.9044 56.0678 48.9464 56.0241 48.9972 55.9927C49.0758 55.9483 49.1604 55.9153 49.2484 55.8949V55.6216L47.0692 55.6226Z" fill="white"></path></mask><g mask="url(#mask18_55_482)"><path d="M49.2506 55.6227H47.0714V61.289H49.2506V55.6227Z" fill="url(#paint18_linear_55_482)"></path></g><mask id="mask19_55_482" style="mask-type:luminance" maskUnits="userSpaceOnUse" x="53" y="55" width="6" height="7"><path d="M56.9068 55.6226V55.896C56.9907 55.9181 57.072 55.9488 57.1497 55.9874C57.1956 56.0138 57.2353 56.0496 57.2664 56.0926C57.3001 56.1484 57.322 56.2107 57.3305 56.2755C57.3473 56.4048 57.3544 56.5351 57.3515 56.6655V57.4382C57.3515 58.2217 57.3666 58.9439 57.3967 59.6048H57.3305C57.2176 59.3602 57.0876 59.1013 56.9405 58.8279C56.7933 58.5546 56.6741 58.3373 56.583 58.1761L55.1113 55.6226H53.4293V55.896C53.54 55.9182 53.6443 55.9653 53.7341 56.0337C53.7907 56.0863 53.8299 56.1548 53.8466 56.2303C53.8688 56.3724 53.8776 56.5164 53.8729 56.6602V60.2513C53.8729 60.3817 53.8729 60.4889 53.8603 60.5751C53.855 60.6481 53.8361 60.7194 53.8046 60.7854C53.775 60.8428 53.7288 60.8901 53.6721 60.921C53.5947 60.9603 53.5133 60.9909 53.4293 61.0124V61.2858H54.9988V61.0124C54.8885 60.9913 54.7841 60.9465 54.6929 60.881C54.6364 60.8285 54.5975 60.7599 54.5814 60.6845C54.5554 60.5406 54.5448 60.3943 54.5499 60.2482V58.9141C54.5499 58.2532 54.5359 57.6249 54.5079 57.0292H54.5457C54.6648 57.2794 54.8502 57.6228 55.1018 58.0595L56.9699 61.2889H58.0212V56.6634C58.0179 56.5336 58.0264 56.4038 58.0464 56.2755C58.0562 56.2078 58.081 56.1431 58.1189 56.0862C58.1504 56.0451 58.1901 56.0111 58.2356 55.9864C58.3114 55.9502 58.3898 55.9196 58.4701 55.8949V55.6216L56.9068 55.6226Z" fill="white"></path></mask><g mask="url(#mask19_55_482)"><path d="M58.4766 55.6227H53.4326V61.289H58.4766V55.6227Z" fill="url(#paint19_linear_55_482)"></path></g><mask id="mask20_55_482" style="mask-type:luminance" maskUnits="userSpaceOnUse" x="62" y="55" width="6" height="7"><path d="M64.295 55.7204C63.9781 55.8321 63.6893 56.0114 63.4488 56.246C63.1837 56.5075 62.9826 56.8266 62.8611 57.1785C62.7132 57.6052 62.642 58.0547 62.6509 58.5063C62.6509 59.4636 62.8495 60.1785 63.2469 60.6508C63.6443 61.1232 64.247 61.3594 65.0551 61.3594C65.4539 61.3664 65.8466 61.2611 66.1883 61.0556L66.4711 61.3541L67.0682 61.2301V59.6584C67.0656 59.5356 67.0748 59.4127 67.0956 59.2916C67.1099 59.2129 67.1464 59.14 67.2007 59.0813C67.282 59.0125 67.3786 58.9642 67.4824 58.9404V58.6661H65.3515V58.9404C65.4377 58.9636 65.5212 58.9957 65.6007 59.0361C65.6467 59.0616 65.6859 59.0976 65.7153 59.1412C65.7504 59.203 65.7722 59.2714 65.7794 59.342C65.7964 59.4917 65.8034 59.6424 65.8004 59.793V59.9507C65.8004 60.2689 65.7423 60.5005 65.6259 60.6456C65.5591 60.7212 65.4755 60.7802 65.3819 60.818C65.2883 60.8557 65.1872 60.8712 65.0866 60.8632C64.9675 60.8645 64.8497 60.8387 64.742 60.7877C64.6344 60.7367 64.5397 60.6619 64.4653 60.5688C64.2764 60.3265 64.1484 60.0425 64.0921 59.7404C64.0041 59.3259 63.9628 58.9027 63.9691 58.4789C63.9565 58.0079 64.0182 57.5378 64.1521 57.086C64.274 56.7188 64.4401 56.4517 64.6504 56.2849C64.8556 56.1187 65.1127 56.0298 65.3768 56.0337C65.547 56.0272 65.7165 56.0588 65.873 56.1262C66.0021 56.1897 66.1112 56.2876 66.1883 56.409C66.2876 56.5764 66.361 56.7579 66.406 56.9472H66.9747V55.7761C66.4317 55.6251 65.8699 55.5518 65.3063 55.5585C64.9624 55.5559 64.6205 55.6113 64.295 55.7225" fill="white"></path></mask><g mask="url(#mask20_55_482)"><path d="M67.477 55.5561H62.6485V61.3559H67.477V55.5561Z" fill="url(#paint20_linear_55_482)"></path></g><mask id="mask21_55_482" style="mask-type:luminance" maskUnits="userSpaceOnUse" x="11" y="14" width="57" height="24"><path d="M11.3915 37.193L39.5001 19.3342L67.6097 37.193L39.5001 14.8695L11.3915 37.193Z" fill="white"></path></mask><g mask="url(#mask21_55_482)"><path d="M67.6085 14.8695H11.3903V37.193H67.6085V14.8695Z" fill="url(#paint21_linear_55_482)"></path></g><mask id="mask22_55_482" style="mask-type:luminance" maskUnits="userSpaceOnUse" x="-14" y="-22" width="107" height="106"><path d="M92.063 -21.3937H-13.063V83.7322H92.063V-21.3937Z" fill="white"></path></mask><g mask="url(#mask22_55_482)"><path d="M39.5 14.8695L39.5652 14.9515L13.0198 36.0335L39.5 19.2091L65.9802 36.0335L39.4348 14.9515L39.5 14.8695L39.5652 14.9515L39.5 14.8695L39.5652 14.7875L67.6748 37.11L67.5529 37.2813L39.5 19.4583L11.4471 37.2813L11.3252 37.11L39.5 14.735L39.5652 14.7875L39.5 14.8695Z" fill="url(#paint22_linear_55_482)"></path></g><mask id="mask23_55_482" style="mask-type:luminance" maskUnits="userSpaceOnUse" x="11" y="14" width="57" height="24"><path d="M11.3915 37.193L39.5001 19.3342L67.6097 37.193L39.5001 14.8695L11.3915 37.193Z" fill="white"></path></mask><g mask="url(#mask23_55_482)"><path d="M67.6085 14.8695H11.3903V37.193H67.6085V14.8695Z" fill="url(#paint23_linear_55_482)"></path></g><mask id="mask24_55_482" style="mask-type:luminance" maskUnits="userSpaceOnUse" x="34" y="9" width="10" height="9"><path d="M34.0125 12.2045V17.566L34.1302 17.4451L34.5297 17.8277L34.6684 17.9612V16.9215L38.3584 14.5835V12.6461L34.6642 14.9799V13.7289L38.9534 11.0418V14.5835L39.4958 14.1525L43.4601 17.3V12.2045L38.9534 9.10648L34.0125 12.2045Z" fill="white"></path></mask><g mask="url(#mask24_55_482)"><path d="M43.4643 9.10648H34.0125V17.9602H43.4643V9.10648Z" fill="url(#paint24_linear_55_482)"></path></g><mask id="mask25_55_482" style="mask-type:luminance" maskUnits="userSpaceOnUse" x="42" y="0" width="10" height="25"><path d="M42.4982 4.07934V10.2671L44.1382 11.3068V17.8403L47.005 20.1163V2.9219L51.2952 5.60787V6.85782L47.6042 4.51982V6.45834L51.2952 8.7974V10.0537L48.3138 8.27387V10.2113L51.2952 11.9922V13.2484L47.6042 10.9104V12.8511L51.2952 15.1891V16.4453L48.3138 14.6645V16.6009L51.2952 18.3828V19.6327L47.6042 17.2947V19.2385L50.4037 21.012H50.409L51.2952 21.5723V22.8296L48.3138 21.0488V21.156L51.9512 24.0449V4.07934L47.005 0.98233L42.4982 4.07934Z" fill="white"></path></mask><g mask="url(#mask25_55_482)"><path d="M51.9512 0.98233H42.4982V24.0438H51.9512V0.98233Z" fill="url(#paint25_linear_55_482)"></path></g><mask id="mask26_55_482" style="mask-type:luminance" maskUnits="userSpaceOnUse" x="27" y="2" width="10" height="23"><path d="M27.0479 6.04843V24.046L31.3948 20.5937V19.2638L27.7049 21.6018V20.3508L30.6852 18.57V16.6336L27.7049 18.4144V17.1571L31.3948 14.8191V12.8795L27.7049 15.2175V13.9613L30.6852 12.1804V10.243L27.7049 12.0227V10.7654L31.3948 8.42743V6.48891L27.7049 8.82691V7.57696L31.9951 4.89099V20.1164L33.3838 19.0136V11.9407L36.5008 10.0317V6.04843L31.9951 2.95142L27.0479 6.04843Z" fill="white"></path></mask><g mask="url(#mask26_55_482)"><path d="M36.5008 2.95142H27.0479V24.0449H36.5008V2.95142Z" fill="url(#paint26_linear_55_482)"></path></g><mask id="mask27_55_482" style="mask-type:luminance" maskUnits="userSpaceOnUse" x="45" y="31" width="11" height="13"><path d="M45.2199 31.4846C45.2202 32.0095 45.4289 32.5127 45.8001 32.8837C46.1713 33.2547 46.6746 33.4631 47.1994 33.4631H51.334C52.5535 33.4631 53.0655 33.9887 53.0655 35.1599V35.778C53.0655 36.9438 52.5535 37.5651 51.334 37.5651H47.4822V34.1401H45.2199V43.8485H47.4822V39.5383H50.9272L52.585 42.7731C52.7511 43.0971 53.0034 43.369 53.3141 43.559C53.6247 43.7489 53.9818 43.8494 54.3459 43.8496H55.5569L53.2442 39.2377C54.5519 38.8487 55.2416 37.789 55.2416 36.2521V34.7488C55.2416 32.7872 54.04 31.4804 51.8134 31.4804L45.2199 31.4846Z" fill="white"></path></mask><g mask="url(#mask27_55_482)"><path d="M55.5569 31.4804H45.2199V43.8485H55.5569V31.4804Z" fill="url(#paint27_linear_55_482)"></path></g><mask id="mask28_55_482" style="mask-type:luminance" maskUnits="userSpaceOnUse" x="23" y="31" width="12" height="13"><path d="M27.9478 31.4731C26.967 31.4794 25.9861 31.4731 25.0043 31.4731H23.6261C23.5792 31.4755 23.5325 31.4807 23.4862 31.4889C23.4085 31.7759 23.4337 39.8506 23.5125 40.0093H25.757V33.6923C25.8673 33.6797 25.9304 33.6671 25.9935 33.6671C26.8156 33.6671 27.6377 33.6513 28.4577 33.6787C28.7986 33.6928 29.1357 33.7562 29.4585 33.8668C29.902 34.0082 30.3083 34.2469 30.6479 34.5653C30.9874 34.8838 31.2516 35.274 31.4212 35.7076C31.6341 36.1927 31.7526 36.714 31.7702 37.2435C31.7855 37.8537 31.6805 38.461 31.4611 39.0306C31.3161 39.431 31.0892 39.7967 30.7949 40.1044C30.5005 40.4121 30.1453 40.6551 29.7518 40.8178C29.2192 41.0389 28.6463 41.1463 28.0697 41.1331C26.6453 41.1195 25.2198 41.1331 23.7953 41.1331C23.6954 41.1331 23.5966 41.1447 23.4621 41.1531V43.3282C23.534 43.3481 23.6075 43.3618 23.6818 43.3692C25.1535 43.3692 26.6179 43.3692 28.0866 43.3566C28.5151 43.3547 28.9429 43.3196 29.3659 43.2514C30.6832 43.0328 31.8206 42.4672 32.6837 41.4201C33.1196 40.9137 33.4572 40.3305 33.6793 39.7003C33.9525 38.8933 34.0775 38.0435 34.0483 37.192C34.0041 35.983 33.6992 34.8592 33.0159 33.8448C32.2863 32.7599 31.2782 32.0713 30.0314 31.7223C29.3755 31.5507 28.6992 31.4697 28.0214 31.4815H27.9394" fill="white"></path></mask><g mask="url(#mask28_55_482)"><path d="M34.0893 31.4731H23.4127V43.3586H34.0893V31.4731Z" fill="url(#paint28_linear_55_482)"></path></g><mask id="mask29_55_482" style="mask-type:luminance" maskUnits="userSpaceOnUse" x="33" y="31" width="12" height="13"><path d="M37.1495 31.5162C35.975 31.6065 34.8539 32.0438 33.9284 32.7725C33.7886 32.8776 33.6646 33.0111 33.5752 33.0878C33.9389 33.8426 34.2817 34.5522 34.6359 35.285L34.7537 35.1168C35.0133 34.729 35.3474 34.3967 35.7366 34.1391C36.7101 33.5083 37.7802 33.4148 38.8809 33.6482C40.236 33.9404 41.077 34.8172 41.4828 36.1102C41.8234 37.1983 41.8244 38.2874 41.3924 39.3544C41.0539 40.1881 40.5125 40.8546 39.7041 41.2772C38.9445 41.6736 38.0758 41.8095 37.2315 41.664C36.7414 41.5913 36.2711 41.42 35.8491 41.1605C35.4061 40.8803 35.0317 40.5041 34.7537 40.0598C34.6895 39.962 34.617 39.8706 34.5434 39.7749L34.4803 39.7833C34.2217 40.574 33.8225 41.3116 33.3019 41.9605C33.8553 42.6088 34.568 43.1018 35.3697 43.3912C37.3671 44.0914 39.3309 43.9957 41.2505 42.997C41.4618 43.1841 41.7081 43.3277 41.9751 43.4193C42.2421 43.511 42.5246 43.5489 42.8063 43.5311C43.4087 43.4943 43.8765 43.2304 44.3023 42.7384L42.8957 41.4107C43.046 41.1394 43.189 40.9124 43.3025 40.6748C43.8672 39.4613 44.0789 38.1133 43.9133 36.7851C43.8147 35.7402 43.4538 34.7371 42.8641 33.8689C42.04 32.6863 40.9141 31.9619 39.5138 31.6529C38.9858 31.5381 38.4467 31.4817 37.9064 31.4847C37.6555 31.4847 37.4032 31.4966 37.1495 31.5204" fill="white"></path></mask><g mask="url(#mask29_55_482)"><path d="M44.3077 31.4804H33.3073V44.0955H44.3077V31.4804Z" fill="url(#paint29_linear_55_482)"></path></g><mask id="mask30_55_482" style="mask-type:luminance" maskUnits="userSpaceOnUse" x="35" y="25" width="5" height="6"><path d="M39.5001 30.5081L36.5366 26.0833L35.3844 25.0278L39.5001 30.5081Z" fill="white"></path></mask><g mask="url(#mask30_55_482)"><path d="M39.4986 25.0278H35.3829V30.508H39.4986V25.0278Z" fill="url(#paint30_linear_55_482)"></path></g><mask id="mask31_55_482" style="mask-type:luminance" maskUnits="userSpaceOnUse" x="36" y="25" width="4" height="6"><path d="M36.8099 26.058L39.5 30.508L38.4898 26.1684L37.2798 25.0646L36.8099 26.058Z" fill="white"></path></mask><g mask="url(#mask31_55_482)"><path d="M39.5 25.0646H36.8099V30.508H39.5V25.0646Z" fill="url(#paint31_linear_55_482)"></path></g><mask id="mask32_55_482" style="mask-type:luminance" maskUnits="userSpaceOnUse" x="38" y="25" width="3" height="6"><path d="M38.7789 26.1537L39.5001 30.508L40.2213 26.1537L39.5001 25.0646L38.7789 26.1537Z" fill="white"></path></mask><g mask="url(#mask32_55_482)"><path d="M40.2202 25.0646H38.7789V30.508H40.2202V25.0646Z" fill="url(#paint32_linear_55_482)"></path></g><mask id="mask33_55_482" style="mask-type:luminance" maskUnits="userSpaceOnUse" x="35" y="23" width="3" height="3"><path d="M35.3844 25.0278L36.382 24.0774L37.2798 25.0646L36.463 23.5707L35.3844 25.0278Z" fill="white"></path></mask><g mask="url(#mask33_55_482)"><path d="M37.2809 23.5707H35.3844V25.0646H37.2809V23.5707Z" fill="url(#paint33_linear_55_482)"></path></g><mask id="mask34_55_482" style="mask-type:luminance" maskUnits="userSpaceOnUse" x="37" y="23" width="3" height="3"><path d="M37.2798 25.0646L38.5056 24.171L39.5 25.0646L38.5529 23.5707L37.2798 25.0646Z" fill="white"></path></mask><g mask="url(#mask34_55_482)"><path d="M39.5 23.5707H37.2798V25.0646H39.5V23.5707Z" fill="url(#paint34_linear_55_482)"></path></g><mask id="mask35_55_482" style="mask-type:luminance" maskUnits="userSpaceOnUse" x="39" y="25" width="5" height="6"><path d="M42.4635 26.0833L39.5 30.5081L43.6157 25.0278L42.4635 26.0833Z" fill="white"></path></mask><g mask="url(#mask35_55_482)"><path d="M43.6157 25.0278H39.5V30.5081H43.6157V25.0278Z" fill="url(#paint35_linear_55_482)"></path></g><mask id="mask36_55_482" style="mask-type:luminance" maskUnits="userSpaceOnUse" x="39" y="25" width="4" height="6"><path d="M40.5103 26.1684L39.5 30.508L42.1902 26.058L41.7203 25.0646L40.5103 26.1684Z" fill="white"></path></mask><g mask="url(#mask36_55_482)"><path d="M42.1902 25.0646H39.5V30.508H42.1902V25.0646Z" fill="url(#paint36_linear_55_482)"></path></g><mask id="mask37_55_482" style="mask-type:luminance" maskUnits="userSpaceOnUse" x="41" y="23" width="3" height="3"><path d="M41.7203 25.0646L42.617 24.0774L43.6157 25.0278L42.5371 23.5707L41.7203 25.0646Z" fill="white"></path></mask><g mask="url(#mask37_55_482)"><path d="M43.6167 23.5707H41.7203V25.0646H43.6167V23.5707Z" fill="url(#paint37_linear_55_482)"></path></g><mask id="mask38_55_482" style="mask-type:luminance" maskUnits="userSpaceOnUse" x="39" y="23" width="3" height="3"><path d="M39.5 25.0646L40.4945 24.171L41.7203 25.0646L40.4472 23.5707L39.5 25.0646Z" fill="white"></path></mask><g mask="url(#mask38_55_482)"><path d="M41.7203 23.5707H39.5V25.0646H41.7203V23.5707Z" fill="url(#paint38_linear_55_482)"></path></g><mask id="mask39_55_482" style="mask-type:luminance" maskUnits="userSpaceOnUse" x="37" y="21" width="5" height="4"><path d="M39.4243 22.3839C39.3911 22.5759 39.2945 22.7512 39.1498 22.8818C39.0051 23.0123 38.8208 23.0906 38.6264 23.104L37.981 23.1723L38.6264 23.2406C38.8208 23.2542 39.005 23.3325 39.1496 23.4631C39.2942 23.5936 39.391 23.7688 39.4243 23.9608L39.5 24.5463L39.5757 23.9639C39.6091 23.772 39.7058 23.5967 39.8504 23.4662C39.9951 23.3357 40.1793 23.2574 40.3736 23.2438L41.018 23.1755L40.3736 23.1071C40.1792 23.0937 39.9949 23.0155 39.8503 22.8849C39.7056 22.7544 39.6089 22.579 39.5757 22.387L39.5 21.8025L39.4243 22.3839Z" fill="white"></path></mask><g mask="url(#mask39_55_482)"><path d="M41.018 21.8025H37.981V24.5432H41.018V21.8025Z" fill="url(#paint39_linear_55_482)"></path></g><mask id="mask40_55_482" style="mask-type:luminance" maskUnits="userSpaceOnUse" x="36" y="22" width="3" height="3"><path d="M37.3176 23.2091C37.3023 23.2973 37.2578 23.3778 37.1913 23.4376C37.1247 23.4975 37.04 23.5333 36.9508 23.5392L36.6543 23.5708L36.9508 23.6023C37.0401 23.6087 37.1247 23.6448 37.1912 23.7048C37.2577 23.7648 37.3022 23.8453 37.3176 23.9335L37.3523 24.2015L37.387 23.9335C37.4025 23.8453 37.447 23.7648 37.5135 23.7048C37.58 23.6448 37.6646 23.6087 37.7539 23.6023L38.0504 23.5708L37.7539 23.5392C37.6646 23.5333 37.5799 23.4975 37.5134 23.4376C37.4469 23.3778 37.4024 23.2973 37.387 23.2091L37.3523 22.9411L37.3176 23.2091Z" fill="white"></path></mask><g mask="url(#mask40_55_482)"><path d="M38.0504 22.9411H36.6543V24.2015H38.0504V22.9411Z" fill="url(#paint40_linear_55_482)"></path></g><mask id="mask41_55_482" style="mask-type:luminance" maskUnits="userSpaceOnUse" x="40" y="22" width="3" height="3"><path d="M41.6131 23.2091C41.5978 23.2973 41.5533 23.3778 41.4867 23.4376C41.4202 23.4975 41.3355 23.5333 41.2462 23.5392L40.9498 23.5708L41.2462 23.6023C41.3355 23.6087 41.4202 23.6448 41.4866 23.7048C41.5531 23.7648 41.5976 23.8453 41.6131 23.9335L41.6478 24.2015L41.6825 23.9335C41.698 23.8453 41.7425 23.7648 41.809 23.7048C41.8754 23.6448 41.9601 23.6087 42.0494 23.6023L42.3458 23.5708L42.0494 23.5392C41.9601 23.5333 41.8754 23.4975 41.8089 23.4376C41.7423 23.3778 41.6978 23.2973 41.6825 23.2091L41.6478 22.9411L41.6131 23.2091Z" fill="white"></path></mask><g mask="url(#mask41_55_482)"><path d="M42.3458 22.9411H40.9498V24.2015H42.3458V22.9411Z" fill="url(#paint41_linear_55_482)"></path></g><defs><linearGradient id="paint0_linear_55_482" x1="2.71848" y1="46.1953" x2="2.71848" y2="52.0739" gradientUnits="userSpaceOnUse"><stop stop-color="#959DA4"></stop><stop offset="0.02" stop-color="#99A1A7"></stop><stop offset="0.19" stop-color="#BEC7C7"></stop><stop offset="0.34" stop-color="#98A1A7"></stop><stop offset="0.38" stop-color="#8F989F"></stop><stop offset="0.51" stop-color="#D1E4EB"></stop><stop offset="0.83" stop-color="#BEC7C7"></stop><stop offset="1" stop-color="#959DA4"></stop></linearGradient><linearGradient id="paint1_linear_55_482" x1="7.38395" y1="46.1949" x2="7.38395" y2="52.0736" gradientUnits="userSpaceOnUse"><stop stop-color="#959DA4"></stop><stop offset="0.02" stop-color="#99A1A7"></stop><stop offset="0.19" stop-color="#BEC7C7"></stop><stop offset="0.34" stop-color="#98A1A7"></stop><stop offset="0.38" stop-color="#8F989F"></stop><stop offset="0.51" stop-color="#D1E4EB"></stop><stop offset="0.83" stop-color="#BEC7C7"></stop><stop offset="1" stop-color="#959DA4"></stop></linearGradient><linearGradient id="paint2_linear_55_482" x1="11.98" y1="46.1643" x2="11.98" y2="52.0734" gradientUnits="userSpaceOnUse"><stop stop-color="#959DA4"></stop><stop offset="0.02" stop-color="#99A1A7"></stop><stop offset="0.19" stop-color="#BEC7C7"></stop><stop offset="0.34" stop-color="#98A1A7"></stop><stop offset="0.38" stop-color="#8F989F"></stop><stop offset="0.51" stop-color="#D1E4EB"></stop><stop offset="0.83" stop-color="#BEC7C7"></stop><stop offset="1" stop-color="#959DA4"></stop></linearGradient><linearGradient id="paint3_linear_55_482" x1="18.3969" y1="46.1949" x2="18.3969" y2="52.0736" gradientUnits="userSpaceOnUse"><stop stop-color="#959DA4"></stop><stop offset="0.02" stop-color="#99A1A7"></stop><stop offset="0.19" stop-color="#BEC7C7"></stop><stop offset="0.34" stop-color="#98A1A7"></stop><stop offset="0.38" stop-color="#8F989F"></stop><stop offset="0.51" stop-color="#D1E4EB"></stop><stop offset="0.83" stop-color="#BEC7C7"></stop><stop offset="1" stop-color="#959DA4"></stop></linearGradient><linearGradient id="paint4_linear_55_482" x1="24.9592" y1="46.1267" x2="24.9592" y2="52.1431" gradientUnits="userSpaceOnUse"><stop stop-color="#959DA4"></stop><stop offset="0.02" stop-color="#99A1A7"></stop><stop offset="0.19" stop-color="#BEC7C7"></stop><stop offset="0.34" stop-color="#98A1A7"></stop><stop offset="0.38" stop-color="#8F989F"></stop><stop offset="0.51" stop-color="#D1E4EB"></stop><stop offset="0.83" stop-color="#BEC7C7"></stop><stop offset="1" stop-color="#959DA4"></stop></linearGradient><linearGradient id="paint5_linear_55_482" x1="31.2877" y1="46.1953" x2="31.2877" y2="52.0739" gradientUnits="userSpaceOnUse"><stop stop-color="#959DA4"></stop><stop offset="0.02" stop-color="#99A1A7"></stop><stop offset="0.19" stop-color="#BEC7C7"></stop><stop offset="0.34" stop-color="#98A1A7"></stop><stop offset="0.38" stop-color="#8F989F"></stop><stop offset="0.51" stop-color="#D1E4EB"></stop><stop offset="0.83" stop-color="#BEC7C7"></stop><stop offset="1" stop-color="#959DA4"></stop></linearGradient><linearGradient id="paint6_linear_55_482" x1="37.3533" y1="46.1951" x2="37.3533" y2="52.0737" gradientUnits="userSpaceOnUse"><stop stop-color="#959DA4"></stop><stop offset="0.02" stop-color="#99A1A7"></stop><stop offset="0.19" stop-color="#BEC7C7"></stop><stop offset="0.34" stop-color="#98A1A7"></stop><stop offset="0.38" stop-color="#8F989F"></stop><stop offset="0.51" stop-color="#D1E4EB"></stop><stop offset="0.83" stop-color="#BEC7C7"></stop><stop offset="1" stop-color="#959DA4"></stop></linearGradient><linearGradient id="paint7_linear_55_482" x1="45.9096" y1="46.1266" x2="45.9096" y2="53.7241" gradientUnits="userSpaceOnUse"><stop stop-color="#959DA4"></stop><stop offset="0.02" stop-color="#99A1A7"></stop><stop offset="0.19" stop-color="#BEC7C7"></stop><stop offset="0.34" stop-color="#98A1A7"></stop><stop offset="0.38" stop-color="#8F989F"></stop><stop offset="0.51" stop-color="#D1E4EB"></stop><stop offset="0.83" stop-color="#BEC7C7"></stop><stop offset="1" stop-color="#959DA4"></stop></linearGradient><linearGradient id="paint8_linear_55_482" x1="51.9417" y1="46.1949" x2="51.9417" y2="52.1429" gradientUnits="userSpaceOnUse"><stop stop-color="#959DA4"></stop><stop offset="0.02" stop-color="#99A1A7"></stop><stop offset="0.19" stop-color="#BEC7C7"></stop><stop offset="0.34" stop-color="#98A1A7"></stop><stop offset="0.38" stop-color="#8F989F"></stop><stop offset="0.51" stop-color="#D1E4EB"></stop><stop offset="0.83" stop-color="#BEC7C7"></stop><stop offset="1" stop-color="#959DA4"></stop></linearGradient><linearGradient id="paint9_linear_55_482" x1="57.1116" y1="46.1643" x2="57.1116" y2="52.0734" gradientUnits="userSpaceOnUse"><stop stop-color="#959DA4"></stop><stop offset="0.02" stop-color="#99A1A7"></stop><stop offset="0.19" stop-color="#BEC7C7"></stop><stop offset="0.34" stop-color="#98A1A7"></stop><stop offset="0.38" stop-color="#8F989F"></stop><stop offset="0.51" stop-color="#D1E4EB"></stop><stop offset="0.83" stop-color="#BEC7C7"></stop><stop offset="1" stop-color="#959DA4"></stop></linearGradient><linearGradient id="paint10_linear_55_482" x1="62.3179" y1="46.1949" x2="62.3179" y2="52.0736" gradientUnits="userSpaceOnUse"><stop stop-color="#959DA4"></stop><stop offset="0.02" stop-color="#99A1A7"></stop><stop offset="0.19" stop-color="#BEC7C7"></stop><stop offset="0.34" stop-color="#98A1A7"></stop><stop offset="0.38" stop-color="#8F989F"></stop><stop offset="0.51" stop-color="#D1E4EB"></stop><stop offset="0.83" stop-color="#BEC7C7"></stop><stop offset="1" stop-color="#959DA4"></stop></linearGradient><linearGradient id="paint11_linear_55_482" x1="66.2063" y1="46.1949" x2="66.2063" y2="52.0736" gradientUnits="userSpaceOnUse"><stop stop-color="#959DA4"></stop><stop offset="0.02" stop-color="#99A1A7"></stop><stop offset="0.19" stop-color="#BEC7C7"></stop><stop offset="0.34" stop-color="#98A1A7"></stop><stop offset="0.38" stop-color="#8F989F"></stop><stop offset="0.51" stop-color="#D1E4EB"></stop><stop offset="0.83" stop-color="#BEC7C7"></stop><stop offset="1" stop-color="#959DA4"></stop></linearGradient><linearGradient id="paint12_linear_55_482" x1="70.5648" y1="46.1949" x2="70.5648" y2="52.0736" gradientUnits="userSpaceOnUse"><stop stop-color="#959DA4"></stop><stop offset="0.02" stop-color="#99A1A7"></stop><stop offset="0.19" stop-color="#BEC7C7"></stop><stop offset="0.34" stop-color="#98A1A7"></stop><stop offset="0.38" stop-color="#8F989F"></stop><stop offset="0.51" stop-color="#D1E4EB"></stop><stop offset="0.83" stop-color="#BEC7C7"></stop><stop offset="1" stop-color="#959DA4"></stop></linearGradient><linearGradient id="paint13_linear_55_482" x1="76.11" y1="46.195" x2="76.11" y2="52.0736" gradientUnits="userSpaceOnUse"><stop stop-color="#959DA4"></stop><stop offset="0.02" stop-color="#99A1A7"></stop><stop offset="0.19" stop-color="#BEC7C7"></stop><stop offset="0.34" stop-color="#98A1A7"></stop><stop offset="0.38" stop-color="#8F989F"></stop><stop offset="0.51" stop-color="#D1E4EB"></stop><stop offset="0.83" stop-color="#BEC7C7"></stop><stop offset="1" stop-color="#959DA4"></stop></linearGradient><linearGradient id="paint14_linear_55_482" x1="13.6569" y1="55.6227" x2="13.6569" y2="61.2889" gradientUnits="userSpaceOnUse"><stop stop-color="#959DA4"></stop><stop offset="0.02" stop-color="#99A1A7"></stop><stop offset="0.19" stop-color="#BEC7C7"></stop><stop offset="0.34" stop-color="#98A1A7"></stop><stop offset="0.38" stop-color="#8F989F"></stop><stop offset="0.51" stop-color="#D1E4EB"></stop><stop offset="0.83" stop-color="#BEC7C7"></stop><stop offset="1" stop-color="#959DA4"></stop></linearGradient><linearGradient id="paint15_linear_55_482" x1="22.9544" y1="55.5563" x2="22.9544" y2="61.3561" gradientUnits="userSpaceOnUse"><stop stop-color="#959DA4"></stop><stop offset="0.02" stop-color="#99A1A7"></stop><stop offset="0.19" stop-color="#BEC7C7"></stop><stop offset="0.34" stop-color="#98A1A7"></stop><stop offset="0.38" stop-color="#8F989F"></stop><stop offset="0.51" stop-color="#D1E4EB"></stop><stop offset="0.83" stop-color="#BEC7C7"></stop><stop offset="1" stop-color="#959DA4"></stop></linearGradient><linearGradient id="paint16_linear_55_482" x1="32.2672" y1="55.5565" x2="32.2672" y2="61.3563" gradientUnits="userSpaceOnUse"><stop stop-color="#959DA4"></stop><stop offset="0.02" stop-color="#99A1A7"></stop><stop offset="0.19" stop-color="#BEC7C7"></stop><stop offset="0.34" stop-color="#98A1A7"></stop><stop offset="0.38" stop-color="#8F989F"></stop><stop offset="0.51" stop-color="#D1E4EB"></stop><stop offset="0.83" stop-color="#BEC7C7"></stop><stop offset="1" stop-color="#959DA4"></stop></linearGradient><linearGradient id="paint17_linear_55_482" x1="40.505" y1="55.6227" x2="40.505" y2="61.2889" gradientUnits="userSpaceOnUse"><stop stop-color="#959DA4"></stop><stop offset="0.02" stop-color="#99A1A7"></stop><stop offset="0.19" stop-color="#BEC7C7"></stop><stop offset="0.34" stop-color="#98A1A7"></stop><stop offset="0.38" stop-color="#8F989F"></stop><stop offset="0.51" stop-color="#D1E4EB"></stop><stop offset="0.83" stop-color="#BEC7C7"></stop><stop offset="1" stop-color="#959DA4"></stop></linearGradient><linearGradient id="paint18_linear_55_482" x1="47.6758" y1="55.6227" x2="47.6758" y2="61.289" gradientUnits="userSpaceOnUse"><stop stop-color="#959DA4"></stop><stop offset="0.02" stop-color="#99A1A7"></stop><stop offset="0.19" stop-color="#BEC7C7"></stop><stop offset="0.34" stop-color="#98A1A7"></stop><stop offset="0.38" stop-color="#8F989F"></stop><stop offset="0.51" stop-color="#D1E4EB"></stop><stop offset="0.83" stop-color="#BEC7C7"></stop><stop offset="1" stop-color="#959DA4"></stop></linearGradient><linearGradient id="paint19_linear_55_482" x1="55.4689" y1="55.6227" x2="55.4689" y2="61.289" gradientUnits="userSpaceOnUse"><stop stop-color="#959DA4"></stop><stop offset="0.02" stop-color="#99A1A7"></stop><stop offset="0.19" stop-color="#BEC7C7"></stop><stop offset="0.34" stop-color="#98A1A7"></stop><stop offset="0.38" stop-color="#8F989F"></stop><stop offset="0.51" stop-color="#D1E4EB"></stop><stop offset="0.83" stop-color="#BEC7C7"></stop><stop offset="1" stop-color="#959DA4"></stop></linearGradient><linearGradient id="paint20_linear_55_482" x1="65.1022" y1="55.5561" x2="65.1022" y2="61.3559" gradientUnits="userSpaceOnUse"><stop stop-color="#959DA4"></stop><stop offset="0.02" stop-color="#99A1A7"></stop><stop offset="0.19" stop-color="#BEC7C7"></stop><stop offset="0.34" stop-color="#98A1A7"></stop><stop offset="0.38" stop-color="#8F989F"></stop><stop offset="0.51" stop-color="#D1E4EB"></stop><stop offset="0.83" stop-color="#BEC7C7"></stop><stop offset="1" stop-color="#959DA4"></stop></linearGradient><linearGradient id="paint21_linear_55_482" x1="11.3903" y1="26.1358" x2="67.6085" y2="26.1358" gradientUnits="userSpaceOnUse"><stop stop-color="#999999"></stop><stop offset="0.29" stop-color="#484848"></stop><stop offset="0.64" stop-color="#8F8F8F"></stop><stop offset="1" stop-color="#333333"></stop></linearGradient><linearGradient id="paint22_linear_55_482" x1="11.2852" y1="26.3114" x2="67.7137" y2="26.3114" gradientUnits="userSpaceOnUse"><stop stop-color="#333333"></stop><stop offset="0.36" stop-color="#8F8F8F"></stop><stop offset="0.71" stop-color="#484848"></stop><stop offset="1" stop-color="#999999"></stop></linearGradient><linearGradient id="paint23_linear_55_482" x1="11.3903" y1="26.1358" x2="67.6085" y2="26.1358" gradientUnits="userSpaceOnUse"><stop stop-color="#959DA4"></stop><stop offset="0.02" stop-color="#99A1A7"></stop><stop offset="0.19" stop-color="#BEC7C7"></stop><stop offset="0.34" stop-color="#98A1A7"></stop><stop offset="0.38" stop-color="#8F989F"></stop><stop offset="0.51" stop-color="#D1E4EB"></stop><stop offset="0.83" stop-color="#BEC7C7"></stop><stop offset="1" stop-color="#959DA4"></stop></linearGradient><linearGradient id="paint24_linear_55_482" x1="39.1037" y1="6.68017" x2="39.1037" y2="17.2853" gradientUnits="userSpaceOnUse"><stop stop-color="#9E6500"></stop><stop offset="0.03" stop-color="#B17C07"></stop><stop offset="0.08" stop-color="#D3A314"></stop><stop offset="0.13" stop-color="#EBBF1D"></stop><stop offset="0.18" stop-color="#FAD022"></stop><stop offset="0.21" stop-color="#FFD624"></stop><stop offset="0.37" stop-color="#996609"></stop><stop offset="0.55" stop-color="#FFCD5C"></stop><stop offset="0.57" stop-color="#FAC756"></stop><stop offset="0.61" stop-color="#EDB745"></stop><stop offset="0.65" stop-color="#D89D29"></stop><stop offset="0.7" stop-color="#B87500"></stop><stop offset="0.77" stop-color="#FFBD4A"></stop><stop offset="0.86" stop-color="#A16C15"></stop><stop offset="0.92" stop-color="#BD8F11"></stop><stop offset="1" stop-color="#804B00"></stop></linearGradient><linearGradient id="paint25_linear_55_482" x1="47.3172" y1="3.2068" x2="47.3172" y2="22.674" gradientUnits="userSpaceOnUse"><stop stop-color="#9E6500"></stop><stop offset="0.03" stop-color="#B17C07"></stop><stop offset="0.08" stop-color="#D3A314"></stop><stop offset="0.13" stop-color="#EBBF1D"></stop><stop offset="0.18" stop-color="#FAD022"></stop><stop offset="0.21" stop-color="#FFD624"></stop><stop offset="0.37" stop-color="#996609"></stop><stop offset="0.55" stop-color="#FFCD5C"></stop><stop offset="0.57" stop-color="#FAC756"></stop><stop offset="0.61" stop-color="#EDB745"></stop><stop offset="0.65" stop-color="#D89D29"></stop><stop offset="0.7" stop-color="#B87500"></stop><stop offset="0.77" stop-color="#FFBD4A"></stop><stop offset="0.86" stop-color="#A16C15"></stop><stop offset="0.92" stop-color="#BD8F11"></stop><stop offset="1" stop-color="#804B00"></stop></linearGradient><linearGradient id="paint26_linear_55_482" x1="31.8668" y1="3.20687" x2="31.8668" y2="22.6741" gradientUnits="userSpaceOnUse"><stop stop-color="#9E6500"></stop><stop offset="0.03" stop-color="#B17C07"></stop><stop offset="0.08" stop-color="#D3A314"></stop><stop offset="0.13" stop-color="#EBBF1D"></stop><stop offset="0.18" stop-color="#FAD022"></stop><stop offset="0.21" stop-color="#FFD624"></stop><stop offset="0.37" stop-color="#996609"></stop><stop offset="0.55" stop-color="#FFCD5C"></stop><stop offset="0.57" stop-color="#FAC756"></stop><stop offset="0.61" stop-color="#EDB745"></stop><stop offset="0.65" stop-color="#D89D29"></stop><stop offset="0.7" stop-color="#B87500"></stop><stop offset="0.77" stop-color="#FFBD4A"></stop><stop offset="0.86" stop-color="#A16C15"></stop><stop offset="0.92" stop-color="#BD8F11"></stop><stop offset="1" stop-color="#804B00"></stop></linearGradient><linearGradient id="paint27_linear_55_482" x1="50.247" y1="30.9979" x2="50.247" y2="52.2859" gradientUnits="userSpaceOnUse"><stop stop-color="#9E6500"></stop><stop offset="0.03" stop-color="#B17C07"></stop><stop offset="0.08" stop-color="#D3A314"></stop><stop offset="0.13" stop-color="#EBBF1D"></stop><stop offset="0.18" stop-color="#FAD022"></stop><stop offset="0.21" stop-color="#FFD624"></stop><stop offset="0.37" stop-color="#996609"></stop><stop offset="0.55" stop-color="#FFCD5C"></stop><stop offset="0.57" stop-color="#FAC756"></stop><stop offset="0.61" stop-color="#EDB745"></stop><stop offset="0.65" stop-color="#D89D29"></stop><stop offset="0.7" stop-color="#B87500"></stop><stop offset="0.77" stop-color="#FFBD4A"></stop><stop offset="0.86" stop-color="#A16C15"></stop><stop offset="0.92" stop-color="#BD8F11"></stop><stop offset="1" stop-color="#804B00"></stop></linearGradient><linearGradient id="paint28_linear_55_482" x1="28.6111" y1="30.9979" x2="28.6111" y2="52.2859" gradientUnits="userSpaceOnUse"><stop stop-color="#9E6500"></stop><stop offset="0.03" stop-color="#B17C07"></stop><stop offset="0.08" stop-color="#D3A314"></stop><stop offset="0.13" stop-color="#EBBF1D"></stop><stop offset="0.18" stop-color="#FAD022"></stop><stop offset="0.21" stop-color="#FFD624"></stop><stop offset="0.37" stop-color="#996609"></stop><stop offset="0.55" stop-color="#FFCD5C"></stop><stop offset="0.57" stop-color="#FAC756"></stop><stop offset="0.61" stop-color="#EDB745"></stop><stop offset="0.65" stop-color="#D89D29"></stop><stop offset="0.7" stop-color="#B87500"></stop><stop offset="0.77" stop-color="#FFBD4A"></stop><stop offset="0.86" stop-color="#A16C15"></stop><stop offset="0.92" stop-color="#BD8F11"></stop><stop offset="1" stop-color="#804B00"></stop></linearGradient><linearGradient id="paint29_linear_55_482" x1="38.6656" y1="30.9978" x2="38.6656" y2="52.2859" gradientUnits="userSpaceOnUse"><stop stop-color="#9E6500"></stop><stop offset="0.03" stop-color="#B17C07"></stop><stop offset="0.08" stop-color="#D3A314"></stop><stop offset="0.13" stop-color="#EBBF1D"></stop><stop offset="0.18" stop-color="#FAD022"></stop><stop offset="0.21" stop-color="#FFD624"></stop><stop offset="0.37" stop-color="#996609"></stop><stop offset="0.55" stop-color="#FFCD5C"></stop><stop offset="0.57" stop-color="#FAC756"></stop><stop offset="0.61" stop-color="#EDB745"></stop><stop offset="0.65" stop-color="#D89D29"></stop><stop offset="0.7" stop-color="#B87500"></stop><stop offset="0.77" stop-color="#FFBD4A"></stop><stop offset="0.86" stop-color="#A16C15"></stop><stop offset="0.92" stop-color="#BD8F11"></stop><stop offset="1" stop-color="#804B00"></stop></linearGradient><linearGradient id="paint30_linear_55_482" x1="37.5905" y1="23.1366" x2="37.5905" y2="34.7078" gradientUnits="userSpaceOnUse"><stop stop-color="#9E6500"></stop><stop offset="0.03" stop-color="#B17C07"></stop><stop offset="0.08" stop-color="#D3A314"></stop><stop offset="0.13" stop-color="#EBBF1D"></stop><stop offset="0.18" stop-color="#FAD022"></stop><stop offset="0.21" stop-color="#FFD624"></stop><stop offset="0.37" stop-color="#996609"></stop><stop offset="0.55" stop-color="#FFCD5C"></stop><stop offset="0.57" stop-color="#FAC756"></stop><stop offset="0.61" stop-color="#EDB745"></stop><stop offset="0.65" stop-color="#D89D29"></stop><stop offset="0.7" stop-color="#B87500"></stop><stop offset="0.77" stop-color="#FFBD4A"></stop><stop offset="0.86" stop-color="#A16C15"></stop><stop offset="0.92" stop-color="#BD8F11"></stop><stop offset="1" stop-color="#804B00"></stop></linearGradient><linearGradient id="paint31_linear_55_482" x1="38.3048" y1="23.1366" x2="38.3048" y2="34.7078" gradientUnits="userSpaceOnUse"><stop stop-color="#9E6500"></stop><stop offset="0.03" stop-color="#B17C07"></stop><stop offset="0.08" stop-color="#D3A314"></stop><stop offset="0.13" stop-color="#EBBF1D"></stop><stop offset="0.18" stop-color="#FAD022"></stop><stop offset="0.21" stop-color="#FFD624"></stop><stop offset="0.37" stop-color="#996609"></stop><stop offset="0.55" stop-color="#FFCD5C"></stop><stop offset="0.57" stop-color="#FAC756"></stop><stop offset="0.61" stop-color="#EDB745"></stop><stop offset="0.65" stop-color="#D89D29"></stop><stop offset="0.7" stop-color="#B87500"></stop><stop offset="0.77" stop-color="#FFBD4A"></stop><stop offset="0.86" stop-color="#A16C15"></stop><stop offset="0.92" stop-color="#BD8F11"></stop><stop offset="1" stop-color="#804B00"></stop></linearGradient><linearGradient id="paint32_linear_55_482" x1="39.6494" y1="23.1366" x2="39.6494" y2="34.7078" gradientUnits="userSpaceOnUse"><stop stop-color="#9E6500"></stop><stop offset="0.03" stop-color="#B17C07"></stop><stop offset="0.08" stop-color="#D3A314"></stop><stop offset="0.13" stop-color="#EBBF1D"></stop><stop offset="0.18" stop-color="#FAD022"></stop><stop offset="0.21" stop-color="#FFD624"></stop><stop offset="0.37" stop-color="#996609"></stop><stop offset="0.55" stop-color="#FFCD5C"></stop><stop offset="0.57" stop-color="#FAC756"></stop><stop offset="0.61" stop-color="#EDB745"></stop><stop offset="0.65" stop-color="#D89D29"></stop><stop offset="0.7" stop-color="#B87500"></stop><stop offset="0.77" stop-color="#FFBD4A"></stop><stop offset="0.86" stop-color="#A16C15"></stop><stop offset="0.92" stop-color="#BD8F11"></stop><stop offset="1" stop-color="#804B00"></stop></linearGradient><linearGradient id="paint33_linear_55_482" x1="36.4809" y1="23.1366" x2="36.4809" y2="34.7078" gradientUnits="userSpaceOnUse"><stop stop-color="#9E6500"></stop><stop offset="0.03" stop-color="#B17C07"></stop><stop offset="0.08" stop-color="#D3A314"></stop><stop offset="0.13" stop-color="#EBBF1D"></stop><stop offset="0.18" stop-color="#FAD022"></stop><stop offset="0.21" stop-color="#FFD624"></stop><stop offset="0.37" stop-color="#996609"></stop><stop offset="0.55" stop-color="#FFCD5C"></stop><stop offset="0.57" stop-color="#FAC756"></stop><stop offset="0.61" stop-color="#EDB745"></stop><stop offset="0.65" stop-color="#D89D29"></stop><stop offset="0.7" stop-color="#B87500"></stop><stop offset="0.77" stop-color="#FFBD4A"></stop><stop offset="0.86" stop-color="#A16C15"></stop><stop offset="0.92" stop-color="#BD8F11"></stop><stop offset="1" stop-color="#804B00"></stop></linearGradient><linearGradient id="paint34_linear_55_482" x1="38.5392" y1="23.1366" x2="38.5392" y2="34.7078" gradientUnits="userSpaceOnUse"><stop stop-color="#9E6500"></stop><stop offset="0.03" stop-color="#B17C07"></stop><stop offset="0.08" stop-color="#D3A314"></stop><stop offset="0.13" stop-color="#EBBF1D"></stop><stop offset="0.18" stop-color="#FAD022"></stop><stop offset="0.21" stop-color="#FFD624"></stop><stop offset="0.37" stop-color="#996609"></stop><stop offset="0.55" stop-color="#FFCD5C"></stop><stop offset="0.57" stop-color="#FAC756"></stop><stop offset="0.61" stop-color="#EDB745"></stop><stop offset="0.65" stop-color="#D89D29"></stop><stop offset="0.7" stop-color="#B87500"></stop><stop offset="0.77" stop-color="#FFBD4A"></stop><stop offset="0.86" stop-color="#A16C15"></stop><stop offset="0.92" stop-color="#BD8F11"></stop><stop offset="1" stop-color="#804B00"></stop></linearGradient><linearGradient id="paint35_linear_55_482" x1="41.4091" y1="23.1366" x2="41.4091" y2="34.7078" gradientUnits="userSpaceOnUse"><stop stop-color="#9E6500"></stop><stop offset="0.03" stop-color="#B17C07"></stop><stop offset="0.08" stop-color="#D3A314"></stop><stop offset="0.13" stop-color="#EBBF1D"></stop><stop offset="0.18" stop-color="#FAD022"></stop><stop offset="0.21" stop-color="#FFD624"></stop><stop offset="0.37" stop-color="#996609"></stop><stop offset="0.55" stop-color="#FFCD5C"></stop><stop offset="0.57" stop-color="#FAC756"></stop><stop offset="0.61" stop-color="#EDB745"></stop><stop offset="0.65" stop-color="#D89D29"></stop><stop offset="0.7" stop-color="#B87500"></stop><stop offset="0.77" stop-color="#FFBD4A"></stop><stop offset="0.86" stop-color="#A16C15"></stop><stop offset="0.92" stop-color="#BD8F11"></stop><stop offset="1" stop-color="#804B00"></stop></linearGradient><linearGradient id="paint36_linear_55_482" x1="40.6953" y1="23.1366" x2="40.6953" y2="34.7078" gradientUnits="userSpaceOnUse"><stop stop-color="#9E6500"></stop><stop offset="0.03" stop-color="#B17C07"></stop><stop offset="0.08" stop-color="#D3A314"></stop><stop offset="0.13" stop-color="#EBBF1D"></stop><stop offset="0.18" stop-color="#FAD022"></stop><stop offset="0.21" stop-color="#FFD624"></stop><stop offset="0.37" stop-color="#996609"></stop><stop offset="0.55" stop-color="#FFCD5C"></stop><stop offset="0.57" stop-color="#FAC756"></stop><stop offset="0.61" stop-color="#EDB745"></stop><stop offset="0.65" stop-color="#D89D29"></stop><stop offset="0.7" stop-color="#B87500"></stop><stop offset="0.77" stop-color="#FFBD4A"></stop><stop offset="0.86" stop-color="#A16C15"></stop><stop offset="0.92" stop-color="#BD8F11"></stop><stop offset="1" stop-color="#804B00"></stop></linearGradient><linearGradient id="paint37_linear_55_482" x1="42.5192" y1="23.1366" x2="42.5192" y2="34.7078" gradientUnits="userSpaceOnUse"><stop stop-color="#9E6500"></stop><stop offset="0.03" stop-color="#B17C07"></stop><stop offset="0.08" stop-color="#D3A314"></stop><stop offset="0.13" stop-color="#EBBF1D"></stop><stop offset="0.18" stop-color="#FAD022"></stop><stop offset="0.21" stop-color="#FFD624"></stop><stop offset="0.37" stop-color="#996609"></stop><stop offset="0.55" stop-color="#FFCD5C"></stop><stop offset="0.57" stop-color="#FAC756"></stop><stop offset="0.61" stop-color="#EDB745"></stop><stop offset="0.65" stop-color="#D89D29"></stop><stop offset="0.7" stop-color="#B87500"></stop><stop offset="0.77" stop-color="#FFBD4A"></stop><stop offset="0.86" stop-color="#A16C15"></stop><stop offset="0.92" stop-color="#BD8F11"></stop><stop offset="1" stop-color="#804B00"></stop></linearGradient><linearGradient id="paint38_linear_55_482" x1="40.4609" y1="23.1366" x2="40.4609" y2="34.7078" gradientUnits="userSpaceOnUse"><stop stop-color="#9E6500"></stop><stop offset="0.03" stop-color="#B17C07"></stop><stop offset="0.08" stop-color="#D3A314"></stop><stop offset="0.13" stop-color="#EBBF1D"></stop><stop offset="0.18" stop-color="#FAD022"></stop><stop offset="0.21" stop-color="#FFD624"></stop><stop offset="0.37" stop-color="#996609"></stop><stop offset="0.55" stop-color="#FFCD5C"></stop><stop offset="0.57" stop-color="#FAC756"></stop><stop offset="0.61" stop-color="#EDB745"></stop><stop offset="0.65" stop-color="#D89D29"></stop><stop offset="0.7" stop-color="#B87500"></stop><stop offset="0.77" stop-color="#FFBD4A"></stop><stop offset="0.86" stop-color="#A16C15"></stop><stop offset="0.92" stop-color="#BD8F11"></stop><stop offset="1" stop-color="#804B00"></stop></linearGradient><linearGradient id="paint39_linear_55_482" x1="39.6493" y1="23.1366" x2="39.6493" y2="34.7078" gradientUnits="userSpaceOnUse"><stop stop-color="#9E6500"></stop><stop offset="0.03" stop-color="#B17C07"></stop><stop offset="0.08" stop-color="#D3A314"></stop><stop offset="0.13" stop-color="#EBBF1D"></stop><stop offset="0.18" stop-color="#FAD022"></stop><stop offset="0.21" stop-color="#FFD624"></stop><stop offset="0.37" stop-color="#996609"></stop><stop offset="0.55" stop-color="#FFCD5C"></stop><stop offset="0.57" stop-color="#FAC756"></stop><stop offset="0.61" stop-color="#EDB745"></stop><stop offset="0.65" stop-color="#D89D29"></stop><stop offset="0.7" stop-color="#B87500"></stop><stop offset="0.77" stop-color="#FFBD4A"></stop><stop offset="0.86" stop-color="#A16C15"></stop><stop offset="0.92" stop-color="#BD8F11"></stop><stop offset="1" stop-color="#804B00"></stop></linearGradient><linearGradient id="paint40_linear_55_482" x1="37.5016" y1="23.1366" x2="37.5016" y2="34.7078" gradientUnits="userSpaceOnUse"><stop stop-color="#9E6500"></stop><stop offset="0.03" stop-color="#B17C07"></stop><stop offset="0.08" stop-color="#D3A314"></stop><stop offset="0.13" stop-color="#EBBF1D"></stop><stop offset="0.18" stop-color="#FAD022"></stop><stop offset="0.21" stop-color="#FFD624"></stop><stop offset="0.37" stop-color="#996609"></stop><stop offset="0.55" stop-color="#FFCD5C"></stop><stop offset="0.57" stop-color="#FAC756"></stop><stop offset="0.61" stop-color="#EDB745"></stop><stop offset="0.65" stop-color="#D89D29"></stop><stop offset="0.7" stop-color="#B87500"></stop><stop offset="0.77" stop-color="#FFBD4A"></stop><stop offset="0.86" stop-color="#A16C15"></stop><stop offset="0.92" stop-color="#BD8F11"></stop><stop offset="1" stop-color="#804B00"></stop></linearGradient><linearGradient id="paint41_linear_55_482" x1="41.4985" y1="23.1366" x2="41.4985" y2="34.7078" gradientUnits="userSpaceOnUse"><stop stop-color="#9E6500"></stop><stop offset="0.03" stop-color="#B17C07"></stop><stop offset="0.08" stop-color="#D3A314"></stop><stop offset="0.13" stop-color="#EBBF1D"></stop><stop offset="0.18" stop-color="#FAD022"></stop><stop offset="0.21" stop-color="#FFD624"></stop><stop offset="0.37" stop-color="#996609"></stop><stop offset="0.55" stop-color="#FFCD5C"></stop><stop offset="0.57" stop-color="#FAC756"></stop><stop offset="0.61" stop-color="#EDB745"></stop><stop offset="0.65" stop-color="#D89D29"></stop><stop offset="0.7" stop-color="#B87500"></stop><stop offset="0.77" stop-color="#FFBD4A"></stop><stop offset="0.86" stop-color="#A16C15"></stop><stop offset="0.92" stop-color="#BD8F11"></stop><stop offset="1" stop-color="#804B00"></stop></linearGradient></defs></svg>